<svg width="1000" height="1000" xmlns="http://www.w3.org/2000/svg">

 <g>
  <title>background</title>
  <rect fill="none" id="canvas_background" height="402" width="582" y="-1" x="-1"/>
 </g>
 <g>
  <title>Layer 1</title>
  <path id="svg_2" fill="#007fff" d="m152.088,727.341c0,16.569 13.432,30 30,30l635.824,0c16.568,0 30,-13.431 30,-30l0,-59.193l-695.824,0l0,59.193z"/>
  <polygon id="svg_3" fill="#007fff" points="437.39,782.338 392.1,827.638 392.1,848.418 607.9,848.418 607.9,827.638 562.61,782.338     "/>
  <path id="svg_4" fill="#005fbf" d="m575.82,312.742l5.615,0l0,-28.831c0,-15.795 6.106,-30.186 16.07,-40.957l-60.368,0l0,48.67l1.678,0c15.725,0.001 29.506,8.487 37.005,21.118z"/>
  <path id="svg_5" fill="#005fbf" d="m417.839,312.742l5.615,0c7.499,-12.631 21.28,-21.117 37.005,-21.117l1.679,0l0,-48.67l-60.369,0c9.965,10.771 16.07,25.162 16.07,40.957l0,28.83z"/>
  <path id="svg_6" fill="#007fff" d="m817.912,242.954l-102.215,0c-2.428,30.76 -27.996,55.115 -59.262,55.578l0,28.837c0,19.725 -9.51,37.271 -24.183,48.295c14.674,11.024 24.183,28.571 24.183,48.296l0,28.837c32.873,0.486 59.469,27.379 59.469,60.366l0,2.449c14.532,11.382 23.521,29.07 23.521,48.113c0,33.648 -27.374,61.022 -61.021,61.022s-61.023,-27.375 -61.023,-61.022c0,-13.673 4.635,-26.648 12.628,-37.092c-27.659,-5.503 -48.574,-29.963 -48.574,-59.215l0,-28.831l-8.01,0c-7.815,10.595 -20.386,17.394 -34.61,17.394l-1.678,0l0,59.63c14.533,11.383 23.523,29.071 23.523,48.114c0,33.648 -27.375,61.022 -61.023,61.022s-61.022,-27.375 -61.022,-61.022c0,-19.044 8.989,-36.732 23.522,-48.114l0,-59.63l-1.679,0c-14.225,0 -26.794,-6.797 -34.609,-17.394l-8.011,0l0,28.831c0,29.253 -20.914,53.712 -48.573,59.215c7.993,10.443 12.628,23.418 12.628,37.092c0,33.648 -27.375,61.022 -61.022,61.022s-61.022,-27.375 -61.022,-61.022c0,-19.044 8.989,-36.732 23.522,-48.114l0,-2.448c0,-32.987 26.595,-59.879 59.468,-60.366l0,-28.837c0,-19.725 9.51,-37.271 24.184,-48.296c-14.674,-11.024 -24.184,-28.57 -24.184,-48.295l0,-28.837c-31.266,-0.462 -56.833,-24.817 -59.261,-55.578l-101.49,0c-16.568,0 -30,13.431 -30,30l0,370.193l695.824,0l0,-370.193c0,-16.568 -13.431,-30 -30,-30z"/>
  <path id="svg_7" fill="#005fbf" d="m308.371,221.396l0,16.771c0,19.504 15.868,35.372 35.372,35.372l13.724,0c5.719,0 10.372,4.653 10.372,10.373l0,43.458c0,19.504 15.868,35.373 35.373,35.373l39.247,0l0,25.846l-39.247,0c-19.505,0 -35.373,15.868 -35.373,35.372l0,43.458c0,5.719 -4.653,10.373 -10.372,10.373l-13.724,0c-19.504,0 -35.372,15.868 -35.372,35.372l0,16.77c-13.732,5.082 -23.522,18.292 -23.522,33.792c0,19.895 16.128,36.023 36.022,36.023s36.022,-16.128 36.022,-36.023c0,-15.499 -9.79,-28.71 -23.522,-33.791l0,-16.771c0,-5.719 4.653,-10.372 10.372,-10.372l13.724,0c19.504,0 35.372,-15.868 35.372,-35.373l0,-43.458c0,-5.719 4.653,-10.372 10.373,-10.372l39.277,0c0.323,9.658 8.233,17.394 17.97,17.394l26.679,0l0,98.952c-13.732,5.082 -23.522,18.292 -23.522,33.792c0,19.895 16.127,36.023 36.022,36.023c19.895,0 36.023,-16.128 36.023,-36.023c0,-15.499 -9.79,-28.709 -23.523,-33.791l0,-98.953l26.678,0c9.736,0 17.647,-7.736 17.97,-17.394l39.277,0c5.72,0 10.373,4.653 10.373,10.372l0,43.458c0,19.504 15.868,35.373 35.372,35.373l13.724,0c5.72,0 10.373,4.653 10.373,10.372l0,16.77c-13.732,5.082 -23.523,18.292 -23.523,33.792c0,19.895 16.127,36.023 36.023,36.023c19.895,0 36.021,-16.128 36.021,-36.023c0,-15.499 -9.789,-28.709 -23.521,-33.791l0,-16.771c0,-19.504 -15.868,-35.372 -35.373,-35.372l-13.724,0c-5.719,0 -10.372,-4.653 -10.372,-10.373l0,-43.458c0,-19.504 -15.868,-35.372 -35.373,-35.372l-39.247,0l0,-25.846l39.247,0c19.505,0 35.373,-15.868 35.373,-35.373l0,-43.458c0,-5.719 4.653,-10.373 10.372,-10.373l13.724,0c19.505,0 35.373,-15.868 35.373,-35.372l0,-16.771c13.732,-5.082 23.521,-18.292 23.521,-33.791c0,-19.895 -16.127,-36.022 -36.021,-36.022c-19.896,0 -36.023,16.128 -36.023,36.022c0,15.499 9.79,28.71 23.523,33.792l0,16.771c0,5.719 -4.653,10.372 -10.373,10.372l-13.724,0c-19.504,0 -35.372,15.868 -35.372,35.373l0,43.458c0,5.719 -4.653,10.373 -10.373,10.373l-39.247,0l0,-3.117c0,-9.941 -8.059,-18 -18,-18l-26.678,0l0,-95.229c13.732,-5.082 23.523,-18.292 23.523,-33.791c0,-19.895 -16.128,-36.022 -36.023,-36.022c-19.896,0 -36.022,16.128 -36.022,36.022c0,15.499 9.79,28.71 23.522,33.792l0,95.229l-26.679,0c-9.941,0 -18,8.059 -18,18l0,3.117l-39.247,0c-5.72,0 -10.373,-4.653 -10.373,-10.373l0,-43.458c0,-19.504 -15.868,-35.373 -35.372,-35.373l-13.724,0c-5.719,0 -10.372,-4.653 -10.372,-10.372l0,-16.771c13.732,-5.082 23.522,-18.292 23.522,-33.792c0,-19.895 -16.128,-36.022 -36.022,-36.022s-36.022,16.128 -36.022,36.022c0,15.498 9.79,28.709 23.522,33.79z"/>
 </g>
</svg>